<svg class="soc-img" enable-background="new 0 0 64 64" viewBox="0 0 64 64" xmlns="http://www.w3.org/2000/svg">
                            <path d="m45.949 33h6.152c.465 2.279 2.484 4 4.899 4 2.757 0 5-2.243 5-5s-2.243-5-5-5c-2.414 0-4.434 1.721-4.899 4h-6.152c-.13-1.821-.609-3.543-1.371-5.107l5.33-3.077c.644.729 1.487 1.256 2.448 1.514.431.116.868.173 1.302.173.866 0 1.722-.228 2.492-.672 1.156-.668 1.984-1.746 2.33-3.036s.168-2.638-.5-3.794-1.746-1.983-3.036-2.329c-1.291-.349-2.638-.168-3.794.499-1.156.668-1.983 1.746-2.329 3.036-.258.962-.223 1.955.087 2.877l-5.319 3.071c-1-1.472-2.272-2.744-3.743-3.743l3.076-5.328c.509.171 1.036.268 1.571.268.434 0 .871-.057 1.302-.173 1.29-.346 2.368-1.173 3.036-2.329s.845-2.504.499-3.794-1.174-2.368-2.33-3.036c-1.156-.669-2.503-.847-3.794-.5-1.29.346-2.368 1.174-3.036 2.33s-.845 2.504-.499 3.794c.258.961.784 1.804 1.514 2.448l-3.077 5.33c-1.564-.762-3.286-1.241-5.107-1.371v-6.152c2.279-.465 4-2.484 4-4.899 0-2.757-2.243-5-5-5s-5 2.243-5 5c0 2.414 1.721 4.434 4 4.899v6.152c-1.821.13-3.543.609-5.107 1.371l-3.077-5.33c.729-.644 1.256-1.487 1.514-2.448.346-1.29.169-2.638-.499-3.794s-1.746-1.984-3.036-2.33c-1.295-.347-2.641-.169-3.796.5-1.156.668-1.983 1.746-2.329 3.036s-.169 2.638.499 3.794 1.746 1.983 3.036 2.329c.431.116.868.173 1.302.173.534 0 1.062-.097 1.571-.268l3.076 5.328c-1.472 1-2.744 2.272-3.743 3.743l-5.319-3.071c.31-.922.344-1.916.087-2.877-.346-1.29-1.173-2.368-2.329-3.036-1.156-.667-2.502-.848-3.794-.499-1.291.345-2.369 1.172-3.037 2.328s-.846 2.504-.5 3.794 1.174 2.368 2.33 3.036c.771.444 1.626.672 2.492.672.434 0 .871-.057 1.302-.173.961-.258 1.804-.784 2.448-1.514l5.33 3.077c-.762 1.564-1.241 3.286-1.371 5.107h-6.152c-.465-2.278-2.485-3.999-4.899-3.999-2.757 0-5 2.243-5 5s2.243 5 5 5c2.414 0 4.434-1.721 4.899-4h6.152c.13 1.821.609 3.543 1.371 5.107l-5.33 3.077c-.644-.729-1.487-1.256-2.448-1.514-1.29-.348-2.638-.167-3.794.499-1.156.668-1.984 1.746-2.33 3.036s-.168 2.639.5 3.795 1.746 1.983 3.036 2.329c.431.116.868.173 1.302.173.866 0 1.722-.228 2.492-.672 1.156-.668 1.983-1.746 2.329-3.036.258-.962.223-1.955-.087-2.877l5.319-3.071c1 1.472 2.272 2.744 3.743 3.743l-3.071 5.319c-.922-.31-1.915-.346-2.877-.087-1.29.346-2.368 1.173-3.036 2.329s-.845 2.504-.499 3.794 1.173 2.368 2.329 3.036c.771.445 1.625.672 2.492.672.434 0 .871-.057 1.302-.172 1.29-.346 2.368-1.174 3.036-2.33s.845-2.504.499-3.794c-.258-.961-.784-1.804-1.514-2.448l3.077-5.33c1.564.762 3.286 1.241 5.107 1.371v6.152c-2.279.465-4 2.484-4 4.899 0 2.757 2.243 5 5 5s5-2.243 5-5c0-2.414-1.721-4.434-4-4.899v-6.152c1.821-.13 3.543-.609 5.107-1.371l3.077 5.33c-.729.644-1.256 1.487-1.514 2.448-.346 1.29-.169 2.638.499 3.794s1.746 1.984 3.036 2.33c.431.115.868.172 1.302.172.867 0 1.722-.227 2.492-.672 1.156-.668 1.983-1.746 2.329-3.036s.169-2.638-.499-3.794-1.746-1.983-3.036-2.329c-.963-.26-1.955-.224-2.877.086l-3.071-5.319c1.472-1 2.744-2.272 3.743-3.743l5.319 3.071c-.31.922-.344 1.916-.087 2.877.346 1.29 1.173 2.368 2.329 3.036.771.444 1.626.672 2.492.672.434 0 .871-.057 1.302-.173 1.29-.346 2.368-1.173 3.036-2.329s.846-2.504.5-3.794-1.174-2.368-2.33-3.036c-1.155-.666-2.503-.847-3.794-.499-.961.258-1.804.784-2.448 1.514l-5.33-3.077c.765-1.564 1.244-3.286 1.373-5.107zm11.051-4c1.654 0 3 1.346 3 3s-1.346 3-3 3-3-1.346-3-3 1.346-3 3-3zm-4.85-12.098c.472-.272.986-.401 1.495-.401 1.037 0 2.048.538 2.603 1.499.401.694.508 1.502.301 2.276-.208.773-.704 1.421-1.398 1.821-1.433.828-3.271.335-4.098-1.098s-.335-3.27 1.097-4.097zm-10.248-8.052c.4-.694 1.048-1.19 1.821-1.398.259-.068.521-.104.781-.104.52 0 1.033.137 1.495.404 1.433.827 1.925 2.665 1.098 4.098-.826 1.433-2.667 1.927-4.098 1.098-1.432-.828-1.924-2.666-1.097-4.098zm-25 3c-.827-1.433-.335-3.271 1.098-4.098.463-.268.976-.404 1.495-.404.261 0 .522.035.781.104.773.208 1.421.704 1.821 1.398.827 1.433.335 3.271-1.098 4.098-1.431.828-3.27.334-4.097-1.098zm-8.052 10.248c-.694-.4-1.19-1.048-1.398-1.821-.208-.775-.101-1.583.3-2.277.555-.961 1.565-1.499 2.603-1.499.509 0 1.024.129 1.495.401 1.433.827 1.925 2.665 1.098 4.098s-2.667 1.926-4.098 1.098zm-1.85 12.902c-1.654 0-3-1.346-3-3s1.346-3 3-3 3 1.346 3 3-1.346 3-3 3zm4.85 12.098c-1.432.828-3.272.335-4.098-1.098-.401-.694-.508-1.502-.301-2.276.208-.773.704-1.421 1.398-1.821.472-.272.986-.401 1.495-.401 1.037 0 2.048.538 2.603 1.499.827 1.432.335 3.27-1.097 4.097zm10.248 8.052c-.4.694-1.048 1.19-1.821 1.398-.774.204-1.583.102-2.276-.301-1.433-.827-1.925-2.665-1.098-4.098.555-.961 1.565-1.499 2.603-1.499.509 0 1.024.129 1.495.401 1.432.829 1.924 2.667 1.097 4.099zm25-3c.827 1.433.335 3.271-1.098 4.098-.695.402-1.502.505-2.276.301-.773-.208-1.421-.704-1.821-1.398-.827-1.433-.335-3.271 1.098-4.098.472-.272.986-.401 1.495-.401 1.036-.001 2.047.537 2.602 1.498zm6.557-10.649c.509 0 1.024.129 1.495.401.694.4 1.19 1.048 1.398 1.821.207.774.101 1.582-.301 2.276-.827 1.433-2.667 1.926-4.098 1.098-1.433-.827-1.925-2.665-1.098-4.098.556-.96 1.567-1.498 2.604-1.498zm-24.655-34.501c0-1.654 1.346-3 3-3s3 1.346 3 3-1.346 3-3 3-3-1.346-3-3zm3 13c6.617 0 12 5.383 12 12 0 2.763-.948 5.304-2.523 7.335-.883-2.165-2.805-3.759-5.134-4.206 1.024-1.077 1.657-2.529 1.657-4.129v-2c0-3.309-2.691-6-6-6h-5c-.553 0-1 .447-1 1v7c0 1.6.633 3.052 1.657 4.128-2.329.448-4.25 2.042-5.134 4.206-1.575-2.03-2.523-4.571-2.523-7.334 0-6.617 5.383-12 12-12zm1.234 17-1.234 2.057-1.234-2.057zm-5.234-8h5.586l2.376 2.376c-.193 2.028-1.885 3.624-3.962 3.624-2.206 0-4-1.794-4-4zm0-2v-2h4c2.048 0 3.722 1.552 3.953 3.539l-1.246-1.246c-.187-.188-.441-.293-.707-.293zm.464 10.05 2.679 4.465c.18.3.505.485.857.485s.677-.185.857-.485l2.679-4.465c2.174.232 3.924 1.83 4.346 3.976-2.11 1.846-4.864 2.974-7.882 2.974s-5.772-1.128-7.883-2.974c.423-2.146 2.173-3.744 4.347-3.976zm6.536 19.95c0 1.654-1.346 3-3 3s-3-1.346-3-3 1.346-3 3-3 3 1.346 3 3z"></path>
                        </svg>