<svg class="soc-img" version="1.1" id="Layer_1" xmlns="http://www.w3.org/2000/svg" xmlns:xlink="http://www.w3.org/1999/xlink" x="0px" y="0px" viewBox="0 0 512 512" xml:space="preserve">
                            <g>
                                <path class="st0" d="M222.87,97.83c13.27,0,24.07-10.8,24.07-24.07s-10.8-24.07-24.07-24.07c-13.27,0-24.07,10.8-24.07,24.07
		S209.6,97.83,222.87,97.83z M222.87,64.7c5,0,9.07,4.07,9.07,9.07s-4.07,9.07-9.07,9.07c-5,0-9.07-4.07-9.07-9.07
		C213.8,68.77,217.87,64.7,222.87,64.7z"></path>
                                <path class="st0" d="M289.13,115.97c-13.27,0-24.07,10.8-24.07,24.07s10.8,24.07,24.07,24.07s24.07-10.8,24.07-24.07
		S302.4,115.97,289.13,115.97z M289.13,149.1c-5,0-9.07-4.07-9.07-9.07c0-5,4.07-9.07,9.07-9.07c5,0,9.07,4.07,9.07,9.07
		C298.2,145.03,294.13,149.1,289.13,149.1z"></path>
                                <path class="st0" d="M201,161.9c1.46,1.46,3.38,2.2,5.3,2.2s3.84-0.73,5.3-2.2L311,62.5c2.93-2.93,2.93-7.68,0-10.61
		c-2.93-2.93-7.68-2.93-10.61,0L201,151.3C198.07,154.23,198.07,158.97,201,161.9L201,161.9z"></path>
                                <path class="st0" d="M471.37,165.67H345.25c11.15-16.87,17.65-37.07,17.65-58.77C362.9,47.96,314.95,0,256,0
		c-22.4,0-43.86,6.86-62.04,19.83c-3.37,2.41-4.15,7.09-1.75,10.46s7.09,4.16,10.46,1.75C218.3,20.89,236.74,15,256,15
		c50.67,0,91.9,41.23,91.9,91.9s-41.23,91.9-91.9,91.9s-91.9-41.23-91.9-91.9c0-20.25,6.45-39.45,18.67-55.53
		c2.51-3.3,1.86-8-1.44-10.51c-3.3-2.51-8-1.86-10.51,1.44c-14.21,18.71-21.72,41.05-21.72,64.6c0,21.69,6.5,41.89,17.65,58.77
		H40.63C18.23,165.67,0,183.9,0,206.3v265.07C0,493.77,18.23,512,40.63,512h34.7c4.14,0,7.5-3.36,7.5-7.5s-3.36-7.5-7.5-7.5h-34.7
		C26.5,497,15,485.5,15,471.37V296.63h482v174.73c0,14.14-11.5,25.63-25.63,25.63H105.33c-4.14,0-7.5,3.36-7.5,7.5s3.36,7.5,7.5,7.5
		h366.03c22.41,0,40.63-18.23,40.63-40.63V206.3C512,183.9,493.77,165.67,471.37,165.67L471.37,165.67z M40.63,180.67H178.7
		c19.48,20.4,46.93,33.13,77.3,33.13s57.82-12.73,77.3-33.13h138.07c14.14,0,25.63,11.5,25.63,25.63v25.63H15V206.3
		C15,192.17,26.5,180.67,40.63,180.67L40.63,180.67z M15,281.63v-34.7h482v34.7H15z"></path>
                                <path class="st0" d="M455.37,478.87c12.96,0,23.5-10.54,23.5-23.5V421.1c0-12.96-10.54-23.5-23.5-23.5H371.4
		c-12.96,0-23.5,10.54-23.5,23.5v34.27c0,12.96,10.54,23.5,23.5,23.5H455.37z M362.9,455.37V421.1c0-4.69,3.81-8.5,8.5-8.5h83.97
		c4.69,0,8.5,3.81,8.5,8.5v34.27c0,4.69-3.81,8.5-8.5,8.5H371.4C366.71,463.87,362.9,460.05,362.9,455.37z"></path>
                                <path class="st0" d="M405.1,445.73h16.57c4.14,0,7.5-3.36,7.5-7.5s-3.36-7.5-7.5-7.5H405.1c-4.14,0-7.5,3.36-7.5,7.5
		S400.96,445.73,405.1,445.73z"></path>
                                <path class="st0" d="M48.63,379.47h33.7c8.55,0,15.5-6.95,15.5-15.5v-17.13c0-8.55-6.95-15.5-15.5-15.5h-33.7
		c-8.55,0-15.5,6.95-15.5,15.5v17.13C33.13,372.51,40.09,379.47,48.63,379.47z M48.13,346.83c0-0.28,0.22-0.5,0.5-0.5h33.7
		c0.28,0,0.5,0.22,0.5,0.5v17.13c0,0.28-0.22,0.5-0.5,0.5h-33.7c-0.28,0-0.5-0.22-0.5-0.5V346.83z"></path>
                                <path class="st0" d="M214.87,331.33h-83.4c-8.55,0-15.5,6.95-15.5,15.5v17.13c0,8.55,6.95,15.5,15.5,15.5h83.4
		c8.55,0,15.5-6.95,15.5-15.5v-17.13C230.37,338.29,223.41,331.33,214.87,331.33z M215.37,363.97c0,0.28-0.22,0.5-0.5,0.5h-83.4
		c-0.28,0-0.5-0.22-0.5-0.5v-17.13c0-0.28,0.22-0.5,0.5-0.5h83.4c0.28,0,0.5,0.22,0.5,0.5V363.97z"></path>
                                <path class="st0" d="M314.27,379.47c8.55,0,15.5-6.95,15.5-15.5v-17.13c0-8.55-6.95-15.5-15.5-15.5H264
		c-8.55,0-15.5,6.95-15.5,15.5v17.13c0,8.55,6.95,15.5,15.5,15.5H314.27z M263.5,363.97v-17.13c0-0.28,0.23-0.5,0.5-0.5h50.27
		c0.27,0,0.5,0.22,0.5,0.5v17.13c0,0.28-0.23,0.5-0.5,0.5H264C263.73,364.47,263.5,364.24,263.5,363.97z"></path>
                                <path class="st0" d="M130.97,405.1c0-4.14-3.36-7.5-7.5-7.5H40.63c-4.14,0-7.5,3.36-7.5,7.5s3.36,7.5,7.5,7.5h82.83
		C127.61,412.6,130.97,409.24,130.97,405.1z"></path>
                                <path class="st0" d="M40.63,447.3c-4.14,0-7.5,3.36-7.5,7.5s3.36,7.5,7.5,7.5h33.13c4.14,0,7.5-3.36,7.5-7.5s-3.36-7.5-7.5-7.5
		H40.63z"></path>
                                <path class="st0" d="M198.8,405.1c0,4.14,3.36,7.5,7.5,7.5h33.13c4.14,0,7.5-3.36,7.5-7.5s-3.36-7.5-7.5-7.5H206.3
		C202.16,397.6,198.8,400.96,198.8,405.1z"></path>
                                <path class="st0" d="M156.6,397.6c-4.14,0-7.5,3.36-7.5,7.5s3.36,7.5,7.5,7.5h16.57c4.14,0,7.5-3.36,7.5-7.5s-3.36-7.5-7.5-7.5
		H156.6z"></path>
                            </g>
                        </svg>