<svg class="soc-img" version="1.1" xmlns="http://www.w3.org/2000/svg" xmlns:xlink="http://www.w3.org/1999/xlink" x="0px" y="0px" viewBox="0 0 1000 1000" enable-background="new 0 0 1000 1000" xml:space="preserve">
                            <metadata> Svg Vector Icons : http://www.onlinewebfonts.com/icon </metadata>
                            <g>
                                <path d="M948.9,182.1c-22.4-3.7-44.9-3.7-63.6-3.7c-67.3,0-130.9,15-187,41.1c-41.1-82.3-104.7-157.1-187-202L500,10l-11.2,7.5c-78.5,48.6-145.9,119.7-187,202c-56.1-26.2-119.7-41.1-187-41.1c-18.7,0-37.4,0-63.6,3.7l-18.7,3.7v22.4c3.7,231.9,168.3,422.7,385.3,463.8V904c0,44.9,37.4,86,82.3,86c44.9,0,82.3-37.4,82.3-86V672.1c216.9-41.1,381.5-231.9,385.3-463.8v-22.4L948.9,182.1z M500,62.4c67.3,41.1,119.7,104.7,157.1,175.8c-63.6,37.4-116,86-157.1,145.9c-41.1-59.8-93.5-108.5-157.1-145.9C380.3,167.1,432.7,107.3,500,62.4z M537.4,627.2c-11.2,0-22.4,0-33.7,0l0,0l0,0c-11.2,0-22.4,0-33.7,0c3.7-52.4,15-101,37.4-145.9C522.4,526.2,533.7,574.8,537.4,627.2z M421.5,623.4C234.4,586,92.3,425.2,81.1,226.9c11.2,0,26.2,0,37.4,0c149.6,0,284.3,82.3,359.1,205.7C443.9,488.8,425.2,552.4,421.5,623.4z M537.4,900.2c0,18.7-15,37.4-37.4,37.4c-18.7,0-37.4-15-37.4-37.4V675.8l0,0c11.2,0,26.2,0,37.4,0l0,0c11.2,0,22.4,0,37.4-3.7l0,0V900.2z M582.3,623.4c-3.7-71.1-22.4-134.7-56.1-194.5C601,305.5,735.6,223.2,885.3,223.2c11.2,0,22.4,0,37.4,0C911.5,421.5,769.3,586,582.3,623.4z"></path>
                            </g>
                        </svg>