<svg id="Layer_1" data-name="Layer 1" xmlns="http://www.w3.org/2000/svg" viewBox="0 0 524.23 524.27"><g id="house-home-7"><rect x="122.32" y="428.16" width="17.47" height="17.47"/><path d="M-121.21,79.76h69.89A8.74,8.74,0,0,0-42.58,71V1.12a8.73,8.73,0,0,0-8.74-8.73h-69.89a8.73,8.73,0,0,0-8.74,8.73V71A8.74,8.74,0,0,0-121.21,79.76Zm8.73-34.95H-95V62.28h-17.48Zm35,17.47V44.81H-60V62.28ZM-60,27.34H-77.53V9.86H-60ZM-95,9.86V27.34h-17.48V9.86Z" transform="translate(234.8 234.82)"/><path d="M123.42-121.2H228.27A43.68,43.68,0,0,0,272-164.88a43.69,43.69,0,0,0-43.69-43.69A43.19,43.19,0,0,0,213.68-206a52.25,52.25,0,0,0-70.17-23.19,52.21,52.21,0,0,0-21.83,20.66A43.7,43.7,0,0,0,78.87-164,43.68,43.68,0,0,0,123.42-121.2Zm0-69.89a7.75,7.75,0,0,1,1.18.13l1.44.17A8.74,8.74,0,0,0,135-196a34.81,34.81,0,0,1,45.61-18.52,34.81,34.81,0,0,1,20,22.89,8.74,8.74,0,0,0,10.76,6.08,8.91,8.91,0,0,0,2.49-1.14,26.21,26.21,0,0,1,36.33,7.34A26.2,26.2,0,0,1,242.85-143a26.24,26.24,0,0,1-14.58,4.38H123.42a26.22,26.22,0,0,1-26.21-26.21A26.21,26.21,0,0,1,123.42-191.09Z" transform="translate(234.8 234.82)"/><path d="M280.69,237H263.22V9.86a8.74,8.74,0,0,0-8.74-8.74H44.79V-9.54l6.64,1.66a8.29,8.29,0,0,0,2.1.27,8.66,8.66,0,0,0,8.74-8.56v-52.6a8.76,8.76,0,0,0-6.65-8.48L-84.17-112.2a8.49,8.49,0,0,0-4.19,0l-139.8,35a8.76,8.76,0,0,0-6.64,8.48v52.42a8.75,8.75,0,0,0,3.32,6.9A8.91,8.91,0,0,0-224-7.88l15.37-3.84V237h-17.47a8.73,8.73,0,0,0-8.74,8.73v34.95a8.74,8.74,0,0,0,8.74,8.74H280.69a8.74,8.74,0,0,0,8.74-8.74V245.76A8.73,8.73,0,0,0,280.69,237ZM245.74,18.6V237H-33.84V184.6a52.42,52.42,0,0,0-52.43-52.42,52.42,52.42,0,0,0-52.42,52.42V237h-52.42V-16.09L-86.27-42.3,27.32-13.9V9.86a8.77,8.77,0,0,0,2.53,6.2,9.05,9.05,0,0,0,6.2,2.54Zm-297.06,166V237h-69.89V184.6a34.94,34.94,0,0,1,34.94-34.95A35,35,0,0,1-51.32,184.6Zm-166-212.13V-62L-86.27-94.72,44.79-62v34.43l-129-32.24a8.49,8.49,0,0,0-4.19,0ZM272,272H-217.32V254.5H272Z" transform="translate(234.8 234.82)"/><path d="M219.53,97.23V71a34.95,34.95,0,1,0-69.89,0V97.23H140.9v17.48h87.37V97.23Zm-17.47,0H167.11V71a17.48,17.48,0,0,1,34.95,0Z" transform="translate(234.8 234.82)"/><path d="M114.69,97.23V71a34.95,34.95,0,0,0-69.9,0V97.23H36.05v17.48h87.37V97.23Zm-17.48,0H62.27V71a17.47,17.47,0,0,1,34.94,0Z" transform="translate(234.8 234.82)"/></g></svg>