<svg class="soc-img" enable-background="new 0 0 512 512" viewBox="0 0 512 512" xmlns="http://www.w3.org/2000/svg">
                            <path d="m90.333 286.734c4.142 0 7.5-3.358 7.5-7.5v-34.346c0-15.275-12.428-27.703-27.704-27.703-15.275 0-27.703 12.428-27.703 27.703v34.346c0 4.142 3.358 7.5 7.5 7.5zm-32.906-41.846c0-7.004 5.699-12.703 12.703-12.703 7.005 0 12.704 5.699 12.704 12.703v26.846h-25.407z"></path>
                            <path d="m42.427 393.382c0 4.142 3.358 7.5 7.5 7.5h40.407c4.142 0 7.5-3.358 7.5-7.5v-34.346c0-15.275-12.428-27.703-27.704-27.703-15.275 0-27.703 12.428-27.703 27.703zm15-34.345c0-7.004 5.699-12.703 12.703-12.703 7.005 0 12.704 5.699 12.704 12.703v26.846h-25.407z"></path>
                            <path d="m150.943 215.012h40.407c4.142 0 7.5-3.358 7.5-7.5v-34.346c0-15.275-12.428-27.703-27.703-27.703-15.276 0-27.704 12.428-27.704 27.703v34.346c0 4.142 3.358 7.5 7.5 7.5zm7.5-41.845c0-7.004 5.699-12.703 12.704-12.703 7.004 0 12.703 5.699 12.703 12.703v26.846h-25.407z"></path>
                            <path d="m469.573 244.888c0-15.275-12.428-27.703-27.703-27.703-15.276 0-27.704 12.428-27.704 27.703v34.346c0 4.142 3.358 7.5 7.5 7.5h40.407c4.142 0 7.5-3.358 7.5-7.5zm-15 26.846h-25.407v-26.846c0-7.004 5.699-12.703 12.704-12.703 7.004 0 12.703 5.699 12.703 12.703z"></path>
                            <path d="m320.65 215.012h40.407c4.142 0 7.5-3.358 7.5-7.5v-34.346c0-15.275-12.428-27.703-27.704-27.703-15.275 0-27.703 12.428-27.703 27.703v34.346c0 4.142 3.358 7.5 7.5 7.5zm7.5-41.845c0-7.004 5.699-12.703 12.703-12.703 7.005 0 12.704 5.699 12.704 12.703v26.846h-25.407z"></path>
                            <path d="m235.797 215.012h40.406c4.142 0 7.5-3.358 7.5-7.5v-34.346c0-15.275-12.428-27.703-27.703-27.703s-27.703 12.428-27.703 27.703v34.346c0 4.142 3.358 7.5 7.5 7.5zm7.5-41.845c0-7.004 5.699-12.703 12.703-12.703s12.703 5.699 12.703 12.703v26.846h-25.406z"></path>
                            <path d="m150.943 318.049h40.407c4.142 0 7.5-3.358 7.5-7.5v-34.346c0-15.275-12.428-27.703-27.703-27.703-15.276 0-27.704 12.428-27.704 27.703v34.346c0 4.142 3.358 7.5 7.5 7.5zm7.5-41.846c0-7.004 5.699-12.703 12.704-12.703 7.004 0 12.703 5.699 12.703 12.703v26.846h-25.407z"></path>
                            <path d="m320.65 318.049h40.407c4.142 0 7.5-3.358 7.5-7.5v-34.346c0-15.275-12.428-27.703-27.704-27.703-15.275 0-27.703 12.428-27.703 27.703v34.346c0 4.142 3.358 7.5 7.5 7.5zm7.5-41.846c0-7.004 5.699-12.703 12.703-12.703 7.005 0 12.704 5.699 12.704 12.703v26.846h-25.407z"></path>
                            <path d="m235.797 318.049h40.406c4.142 0 7.5-3.358 7.5-7.5v-34.346c0-15.275-12.428-27.703-27.703-27.703s-27.703 12.428-27.703 27.703v34.346c0 4.142 3.358 7.5 7.5 7.5zm7.5-41.846c0-7.004 5.699-12.703 12.703-12.703s12.703 5.699 12.703 12.703v26.846h-25.406z"></path>
                            <path d="m441.87 331.333c-15.276 0-27.704 12.428-27.704 27.703v34.346c0 4.142 3.358 7.5 7.5 7.5h40.407c4.142 0 7.5-3.358 7.5-7.5v-34.346c0-15.275-12.427-27.703-27.703-27.703zm12.703 54.549h-25.407v-26.846c0-7.004 5.699-12.703 12.704-12.703 7.004 0 12.703 5.699 12.703 12.703z"></path>
                            <path d="m504.5 143.443h-109.679v-25.406h8.663c4.142 0 7.5-3.358 7.5-7.5v-30.305c0-4.142-3.358-7.5-7.5-7.5h-51.609c-4.142 0-7.5 3.358-7.5 7.5s3.358 7.5 7.5 7.5h44.109v15.305h-279.968v-15.305h200.984c4.142 0 7.5-3.358 7.5-7.5s-3.358-7.5-7.5-7.5h-53.5v-21.366h59.171c2.657 0 5.116-1.406 6.464-3.697 1.348-2.29 1.383-5.123.092-7.446l-8.078-14.54 8.078-14.541c1.291-2.323 1.255-5.155-.092-7.446-1.348-2.29-3.807-3.696-6.464-3.696h-66.671c-4.142 0-7.5 3.358-7.5 7.5v65.232h-139.984c-4.142 0-7.5 3.358-7.5 7.5v30.305c0 4.142 3.358 7.5 7.5 7.5h8.663v25.406h-109.679c-4.142 0-7.5 3.358-7.5 7.5v30.305 66.984c0 4.142 3.358 7.5 7.5 7.5s7.5-3.358 7.5-7.5v-59.484h102.179v245.622h-102.179v-151.209c0-4.142-3.358-7.5-7.5-7.5s-7.5 3.358-7.5 7.5v221.339c0 4.142 3.358 7.5 7.5 7.5h86.874 323.252 86.874c4.142 0 7.5-3.358 7.5-7.5v-221.339c0-4.142-3.358-7.5-7.5-7.5s-7.5 3.358-7.5 7.5v151.209h-102.179v-245.622h102.179v59.484c0 4.142 3.358 7.5 7.5 7.5s7.5-3.358 7.5-7.5v-66.984-30.305c0-4.142-3.358-7.5-7.5-7.5zm-241-128.443h46.425l-3.912 7.041c-1.258 2.265-1.258 5.019 0 7.285l3.911 7.04h-46.424zm132.484 451.695h-279.968v-17.325h279.968zm-107.077-110.26v79.955h-25.407v-79.955zm-40.407 79.955h-25.407v-79.955h25.407zm131.321-318.353v318.353h-75.915v-87.455c0-4.142-3.358-7.5-7.5-7.5h-80.813c-4.142 0-7.5 3.358-7.5 7.5v87.455h-75.915v-318.353zm-364.821 55.711v-15.305h102.179v15.305zm0 275.622h86.016v17.325h-6.642c-4.142 0-7.5 3.358-7.5 7.5v22.805h-71.874zm86.874 32.325h308.252v15.305h-308.252zm395.126 15.305h-71.874v-22.805c0-4.142-3.358-7.5-7.5-7.5h-6.642v-17.325h86.016zm-102.179-338.557h102.179v15.305h-102.179z"></path>
                        </svg>