<svg class="soc-img" viewBox="0 0 480 480" xmlns="http://www.w3.org/2000/svg">
                            <path d="m56 232h240c4.417969 0 8-3.582031 8-8v-120c0-4.417969-3.582031-8-8-8h-240c-4.417969 0-8 3.582031-8 8v120c0 4.417969 3.582031 8 8 8zm128-120h104v104h-104zm-120 0h104v104h-104zm0 0"></path>
                            <path d="m56 448h240c4.417969 0 8-3.582031 8-8v-120c0-4.417969-3.582031-8-8-8h-240c-4.417969 0-8 3.582031-8 8v120c0 4.417969 3.582031 8 8 8zm128-120h104v104h-104zm-120 0h104v104h-104zm0 0"></path>
                            <path d="m352 280h-16v-232h8c4.417969 0 8-3.582031 8-8v-32c0-4.417969-3.582031-8-8-8h-336c-4.417969 0-8 3.582031-8 8v32c0 4.417969 3.582031 8 8 8h8v424c0 4.417969 3.582031 8 8 8h432c4.417969 0 8-3.582031 8-8v-176h16v-16zm-32 184h-288v-168h288zm0-184h-288v-16h288zm0-32h-288v-200h288zm-296-216h-8v-16h320v16zm392 368h-16v16h16v48h-48v-120h48zm32 64h-16v-128c0-4.417969-3.582031-8-8-8h-64c-4.417969 0-8 3.582031-8 8v128h-16v-168h112zm0 0"></path>
                            <path d="m242.347656 194.339844 24.003906-24 11.3125 11.3125-24.003906 24.003906zm0 0"></path>
                            <path d="m202.339844 194.34375 64.003906-64 11.3125 11.3125-64 64zm0 0"></path>
                            <path d="m122.34375 194.339844 24-24.003906 11.316406 11.3125-24.003906 24.003906zm0 0"></path>
                            <path d="m82.34375 194.339844 64.003906-64 11.3125 11.3125-64.003906 64.003906zm0 0"></path>
                            <path d="m242.347656 410.339844 24-24 11.316406 11.3125-24.003906 24.003906zm0 0"></path>
                            <path d="m202.339844 410.34375 64.003906-64.003906 11.3125 11.316406-64.003906 64zm0 0"></path>
                            <path d="m122.34375 410.335938 24-24 11.316406 11.3125-24.003906 24.003906zm0 0"></path>
                            <path d="m82.34375 410.339844 64-64 11.316406 11.3125-64.003906 64zm0 0"></path>
                        </svg>